<?xml version="1.0" encoding="UTF-8" standalone="no"?>
<!-- Created with Inkscape (http://www.inkscape.org/) -->

<svg
   xmlns:dc="http://purl.org/dc/elements/1.1/"
   xmlns:cc="http://creativecommons.org/ns#"
   xmlns:rdf="http://www.w3.org/1999/02/22-rdf-syntax-ns#"
   xmlns:svg="http://www.w3.org/2000/svg"
   xmlns="http://www.w3.org/2000/svg"
   version="1.1"
   width="31.25"
   height="31.25"
   id="svg2"
   xml:space="preserve"><metadata
     id="metadata8"><rdf:RDF><cc:Work
         rdf:about=""><dc:format>image/svg+xml</dc:format><dc:type
           rdf:resource="http://purl.org/dc/dcmitype/StillImage" /><dc:title></dc:title></cc:Work></rdf:RDF></metadata><defs
     id="defs6"><clipPath
       id="clipPath16"><path
         d="M 0,25 25,25 25,0 0,0 0,25 z"
         id="path18" /></clipPath></defs><g
     transform="matrix(1.25,0,0,-1.25,0,31.25)"
     id="g10"><g
       id="g12"><g
         clip-path="url(#clipPath16)"
         id="g14"><g
           transform="translate(6.2529,11.7178)"
           id="g20"><path
             d="m 0,0 3.536,0 0,-10.739 4.416,0 0,10.739 4.418,0 0,4.418 -4.418,0 0,2.243 c 0,0.361 0.088,0.683 0.272,0.95 0.179,0.274 0.38,0.408 0.611,0.408 l 3.535,0 0,4.352 -3.535,0 c -1.452,0 -2.698,-0.57 -3.737,-1.702 C 4.055,9.538 3.536,8.178 3.536,6.593 l 0,-2.175 L 0,4.418 0,0 z"
             id="path22"
             style="fill:#ffffff;fill-opacity:1;fill-rule:nonzero;stroke:none" /></g></g></g></g></svg>