<?xml version="1.0" encoding="UTF-8" standalone="no"?>
<!-- Created with Inkscape (http://www.inkscape.org/) -->

<svg
   xmlns:dc="http://purl.org/dc/elements/1.1/"
   xmlns:cc="http://creativecommons.org/ns#"
   xmlns:rdf="http://www.w3.org/1999/02/22-rdf-syntax-ns#"
   xmlns:svg="http://www.w3.org/2000/svg"
   xmlns="http://www.w3.org/2000/svg"
   version="1.1"
   width="31.25"
   height="31.25"
   id="svg2"
   xml:space="preserve"><metadata
     id="metadata8"><rdf:RDF><cc:Work
         rdf:about=""><dc:format>image/svg+xml</dc:format><dc:type
           rdf:resource="http://purl.org/dc/dcmitype/StillImage" /><dc:title></dc:title></cc:Work></rdf:RDF></metadata><defs
     id="defs6"><clipPath
       id="clipPath16"><path
         d="M 0,25 25,25 25,0 0,0 0,25 z"
         id="path18" /></clipPath></defs><g
     transform="matrix(1.25,0,0,-1.25,0,31.25)"
     id="g10"><g
       id="g12"><g
         clip-path="url(#clipPath16)"
         id="g14"><g
           transform="translate(24.584,19.9004)"
           id="g20"><path
             d="m 0,0 c -0.451,-0.18 -0.908,-0.328 -1.356,-0.441 -0.457,-0.112 -0.931,-0.216 -1.431,-0.305 0.5,0.318 0.929,0.703 1.293,1.152 0.361,0.455 0.656,0.953 0.885,1.497 -0.5,-0.227 -1.01,-0.453 -1.53,-0.678 -0.523,-0.229 -1.076,-0.385 -1.666,-0.478 -0.406,0.498 -0.908,0.886 -1.496,1.156 -0.589,0.272 -1.246,0.408 -1.97,0.408 -1.313,0 -2.448,-0.475 -3.399,-1.425 -0.952,-0.954 -1.428,-2.109 -1.428,-3.465 0,-0.274 0.044,-0.639 0.138,-1.092 -2.04,0.093 -3.909,0.59 -5.608,1.496 -1.7,0.907 -3.159,2.107 -4.384,3.603 -0.405,-0.769 -0.611,-1.588 -0.611,-2.447 0,-1.814 0.703,-3.149 2.107,-4.008 -0.815,0 -1.542,0.181 -2.173,0.541 l 0,-0.069 c 0,-1.176 0.36,-2.209 1.085,-3.091 0.726,-0.881 1.63,-1.438 2.72,-1.663 -0.183,-0.048 -0.375,-0.08 -0.58,-0.102 -0.2,-0.027 -0.44,-0.038 -0.712,-0.038 -0.182,0 -0.453,0.049 -0.818,0.14 0.273,-0.953 0.818,-1.748 1.633,-2.383 0.818,-0.634 1.769,-0.972 2.852,-1.016 -1.719,-1.36 -3.712,-2.039 -5.977,-2.039 l -1.155,0 c 1.039,-0.683 2.197,-1.215 3.465,-1.597 1.267,-0.386 2.584,-0.578 3.942,-0.578 2.217,0 4.191,0.418 5.913,1.257 1.72,0.837 3.16,1.914 4.318,3.229 1.152,1.314 2.025,2.786 2.615,4.418 0.588,1.63 0.881,3.26 0.881,4.893 l 0,0.61 c 0.502,0.362 0.953,0.76 1.361,1.188 0.41,0.432 0.77,0.874 1.086,1.327"
             id="path22"
             style="fill:#ffffff;fill-opacity:1;fill-rule:nonzero;stroke:none" /></g></g></g></g></svg>